<svg xmlns="http://www.w3.org/2000/svg" xmlns:xlink="http://www.w3.org/1999/xlink" width="500" zoomAndPan="magnify" viewBox="0 0 375 374.999991" height="500" preserveAspectRatio="xMidYMid meet" version="1.0"><defs><clipPath id="fee30652c5"><path d="M 56.316406 37.5 L 318.816406 37.5 L 318.816406 337.5 L 56.316406 337.5 Z M 56.316406 37.5 " clip-rule="nonzero"/></clipPath><clipPath id="7dce861300"><path d="M 187.5 265.667969 L 350 265.667969 L 350 375 L 187.5 375 Z M 187.5 265.667969 " clip-rule="nonzero"/></clipPath><clipPath id="f84086302d"><path d="M 215.25 265.667969 L 321.949219 265.667969 C 337.273438 265.667969 349.699219 278.09375 349.699219 293.417969 L 349.699219 381.582031 C 349.699219 396.90625 337.273438 409.332031 321.949219 409.332031 L 215.25 409.332031 C 199.925781 409.332031 187.5 396.90625 187.5 381.582031 L 187.5 293.417969 C 187.5 278.09375 199.925781 265.667969 215.25 265.667969 Z M 215.25 265.667969 " clip-rule="nonzero"/></clipPath><clipPath id="e38349072e"><path d="M 229.078125 223.152344 L 375 223.152344 L 375 362.589844 L 229.078125 362.589844 Z M 229.078125 223.152344 " clip-rule="nonzero"/></clipPath><clipPath id="714ec15495"><path d="M 256.828125 223.152344 L 363.527344 223.152344 C 378.851562 223.152344 391.277344 235.574219 391.277344 250.902344 L 391.277344 334.839844 C 391.277344 350.164062 378.851562 362.589844 363.527344 362.589844 L 256.828125 362.589844 C 241.5 362.589844 229.078125 350.164062 229.078125 334.839844 L 229.078125 250.902344 C 229.078125 235.574219 241.5 223.152344 256.828125 223.152344 Z M 256.828125 223.152344 " clip-rule="nonzero"/></clipPath><clipPath id="f0a52f22cb"><path d="M 199.699219 237 L 337.699219 237 L 337.699219 345 L 199.699219 345 Z M 199.699219 237 " clip-rule="nonzero"/></clipPath></defs><g clip-path="url(#fee30652c5)"><path fill="#ffbd59" d="M 318.675781 84.429688 L 318.675781 112.539062 C 318.675781 138.425781 259.941406 159.390625 187.496094 159.390625 C 115.054688 159.390625 56.316406 138.425781 56.316406 112.539062 L 56.316406 84.429688 C 56.316406 58.546875 115.054688 37.582031 187.496094 37.582031 C 259.941406 37.582031 318.675781 58.546875 318.675781 84.429688 Z M 286.585938 163.3125 C 298.765625 158.980469 309.953125 153.417969 318.675781 146.566406 L 318.675781 206.238281 C 318.675781 232.125 259.941406 253.089844 187.496094 253.089844 C 115.054688 253.089844 56.316406 232.125 56.316406 206.238281 L 56.316406 146.566406 C 65.042969 153.476562 76.230469 158.980469 88.410156 163.3125 C 114.703125 172.683594 149.726562 178.128906 187.496094 178.128906 C 225.269531 178.128906 260.289062 172.683594 286.585938 163.3125 Z M 56.316406 240.265625 C 65.042969 247.175781 76.230469 252.679688 88.410156 257.011719 C 114.703125 266.382812 149.726562 271.828125 187.496094 271.828125 C 225.269531 271.828125 260.289062 266.382812 286.585938 257.011719 C 298.765625 252.679688 309.953125 247.117188 318.675781 240.265625 L 318.675781 290.570312 C 318.675781 316.453125 259.941406 337.417969 187.496094 337.417969 C 115.054688 337.417969 56.316406 316.453125 56.316406 290.570312 Z M 56.316406 240.265625 " fill-opacity="1" fill-rule="nonzero"/></g><g clip-path="url(#7dce861300)"><g clip-path="url(#f84086302d)"><path fill="#ffffff" d="M 187.5 265.667969 L 349.679688 265.667969 L 349.679688 409.332031 L 187.5 409.332031 Z M 187.5 265.667969 " fill-opacity="1" fill-rule="nonzero"/></g></g><g clip-path="url(#e38349072e)"><g clip-path="url(#714ec15495)"><path fill="#ffffff" d="M 229.078125 223.152344 L 391.390625 223.152344 L 391.390625 362.589844 L 229.078125 362.589844 Z M 229.078125 223.152344 " fill-opacity="1" fill-rule="nonzero"/></g></g><g clip-path="url(#f0a52f22cb)"><path fill="#4cb944" d="M 249.460938 248.648438 C 249.460938 242.3125 254.605469 237.167969 260.945312 237.167969 L 276.253906 237.167969 C 282.59375 237.167969 287.738281 242.3125 287.738281 248.648438 L 287.738281 263.960938 C 287.738281 270.300781 282.59375 275.445312 276.253906 275.445312 L 274.339844 275.445312 L 274.339844 285.011719 L 310.703125 285.011719 C 318.09375 285.011719 324.101562 291.015625 324.101562 298.410156 L 324.101562 306.066406 L 326.015625 306.066406 C 332.351562 306.066406 337.496094 311.207031 337.496094 317.546875 L 337.496094 332.859375 C 337.496094 339.199219 332.351562 344.339844 326.015625 344.339844 L 310.703125 344.339844 C 304.363281 344.339844 299.21875 339.199219 299.21875 332.859375 L 299.21875 317.546875 C 299.21875 311.207031 304.363281 306.066406 310.703125 306.066406 L 312.617188 306.066406 L 312.617188 298.410156 C 312.617188 297.355469 311.757812 296.496094 310.703125 296.496094 L 274.339844 296.496094 L 274.339844 306.066406 L 276.253906 306.066406 C 282.59375 306.066406 287.738281 311.207031 287.738281 317.546875 L 287.738281 332.859375 C 287.738281 339.199219 282.59375 344.339844 276.253906 344.339844 L 260.945312 344.339844 C 254.605469 344.339844 249.460938 339.199219 249.460938 332.859375 L 249.460938 317.546875 C 249.460938 311.207031 254.605469 306.066406 260.945312 306.066406 L 262.859375 306.066406 L 262.859375 296.496094 L 226.496094 296.496094 C 225.441406 296.496094 224.582031 297.355469 224.582031 298.410156 L 224.582031 306.066406 L 226.496094 306.066406 C 232.835938 306.066406 237.976562 311.207031 237.976562 317.546875 L 237.976562 332.859375 C 237.976562 339.199219 232.835938 344.339844 226.496094 344.339844 L 211.183594 344.339844 C 204.84375 344.339844 199.703125 339.199219 199.703125 332.859375 L 199.703125 317.546875 C 199.703125 311.207031 204.84375 306.066406 211.183594 306.066406 L 213.097656 306.066406 L 213.097656 298.410156 C 213.097656 291.015625 219.101562 285.011719 226.496094 285.011719 L 262.859375 285.011719 L 262.859375 275.445312 L 260.945312 275.445312 C 254.605469 275.445312 249.460938 270.300781 249.460938 263.960938 Z M 249.460938 248.648438 " fill-opacity="1" fill-rule="nonzero"/></g></svg>